<svg width="60" height="60" xmlns="http://www.w3.org/2000/svg"><g fill-rule="nonzero" fill="none"><path d="M30 58c15.464 0 28-12.536 28-28S45.464 2 30 2 2 14.536 2 30s12.536 28 28 28z" fill="#F283A5"/><path d="M30 53a23 23 0 100-46 23 23 0 000 46z" fill="#ED7899"/><path d="M14 35a13.06 13.06 0 004.06 9.34 15.24 15.24 0 0010.66 4.07c8.11 0 16.5-5.44 16.5-14.54 0-3.48-1-6.51-3.15-8-1.28-.92-3.24 3.49-2.69 4.63a6.38 6.38 0 01.62 2.8c0 4.69-3.34 10.44-9.73 10.44-5 0-10.28-3.11-10.07-8.36.24-5.93 3.6-11.63 6.92-11.58 3 0 3.67 3.23 3.49 4-.23 1-.54 2-.84 2.95a18.73 18.73 0 00-1.1 5c0 2.53.29 4.15 2.9 4.23 2.89.09 5.16-2.9 5.16-6.59 0-.874-.115-1.745-.34-2.59a4.12 4.12 0 01-.05-2l2.51-10.49a24.66 24.66 0 00.08-8.61 1.24 1.24 0 00-.91-1 1.28 1.28 0 00-.34 0c-.391 0-.76.181-1 .49l-.06.08c-1.16 1.48-2.22 5.41-3 8.37-.16.59-.69 2.66-1.08 4.2-1.26-1-2.52-2.46-5.82-2.65C19.35 18.69 14 25.78 14 35z" fill="#FAEFDE"/><path d="M37.68 7.62c.203 0 .404.027.6.08a2.24 2.24 0 011.64 1.87 25.21 25.21 0 01-.1 9L37.36 29a3.09 3.09 0 000 1.53 11 11 0 01.37 2.85 8.37 8.37 0 01-2.33 6A5.27 5.27 0 0131.58 41c-3.87-.12-3.87-3.32-3.87-5.23a19.32 19.32 0 011.15-5.28c.3-1 .6-2 .83-2.88a3.22 3.22 0 00-.72-2 2.26 2.26 0 00-1.8-.81c-2.49 0-5.68 4.86-5.91 10.62A5.9 5.9 0 0023 39.88a10.43 10.43 0 007.34 2.86c6 0 8.73-5.52 8.73-9.44a5.36 5.36 0 00-.57-2.44c-.7-1.46.71-4.64 1.92-5.67a1.77 1.77 0 012.25-.21c2.3 1.66 3.57 4.8 3.57 8.85 0 9.73-8.9 15.54-17.5 15.54A16.24 16.24 0 0117.37 45 14.06 14.06 0 0113 35c0-5.57 1.89-10.54 5.18-13.66a11.32 11.32 0 018.57-3.2A8.72 8.72 0 0131.93 20c.3-1.16.58-2.28.69-2.69l.08-.31c.84-3.06 1.89-6.87 3.14-8.46a2.31 2.31 0 011.84-.92zm-6 31.34a3.34 3.34 0 002.32-1 6.46 6.46 0 001.72-4.59 9 9 0 00-.3-2.33 5.15 5.15 0 01-.06-2.5l2.51-10.46c.5-2.719.524-5.503.07-8.23a.25.25 0 00-.18-.22.31.31 0 00-.29.09c-1.06 1.36-2.09 5.11-2.85 7.84l-.07.26c-.16.58-.68 2.64-1.07 4.18a1 1 0 01-1.59.54l-.52-.43a7 7 0 00-4.74-2 9.41 9.41 0 00-7.08 2.66C16.66 25.5 15 29.95 15 35a12.05 12.05 0 003.76 8.62 14.24 14.24 0 0010 3.8c7.62 0 15.5-5.07 15.5-13.54 0-3.23-.93-5.8-2.56-7.1A5.59 5.59 0 0040.3 30a7.28 7.28 0 01.7 3.3c0 7.16-5.45 11.44-10.73 11.44a12.32 12.32 0 01-8.79-3.47 7.93 7.93 0 01-2.28-5.93c.24-5.94 3.65-12.54 7.88-12.54h.05a4.25 4.25 0 013.42 1.65 4.92 4.92 0 011 3.57c-.24 1-.55 2-.86 3a18.18 18.18 0 00-1.06 4.69c0 2.78.41 3.19 1.93 3.23l.12.02z" fill="#8D6C9F"/><path d="M3.35 41.44c6.318 14.717 23.37 21.525 38.088 15.207 14.717-6.317 21.526-23.37 15.209-38.087C50.329 3.843 33.277-2.967 18.56 3.35A29 29 0 003.35 41.44zm16-36.25A27 27 0 115.19 40.65c-5.881-13.702.458-29.578 14.16-35.46z" fill="#8D6C9F"/><path d="M20.79 11.1a1.001 1.001 0 101.84-.79l-.79-1.84a1.001 1.001 0 00-1.84.79l.79 1.84zm-4.24 2.82a1 1 0 101.57-1.24l-1.24-1.57a1 1 0 00-1.57 1.24l1.24 1.57zm15.04-3.67a1 1 0 001.11-.88l.24-2a1 1 0 00-.88-1.11h-.12a1 1 0 00-1 .88l-.24 2a1 1 0 00.89 1.11zm-18.4 7.5a1 1 0 101.2-1.6l-1.6-1.2a1 1 0 10-1.2 1.6l1.6 1.2zm13.57-7.44a1 1 0 00.85-1.13l-.29-2a1 1 0 00-1-.86h-.14a1 1 0 00-.85 1.13l.29 2a1 1 0 001.14.86zm4.65 41.59c-.763.04-1.527.04-2.29 0H29a1 1 0 00-.06 2 23.38 23.38 0 002.51 0 1 1 0 10-.04-2zm4.1-.61a1 1 0 00.49 1.94 23.09 23.09 0 0012.75-8.44 1.003 1.003 0 10-1.6-1.21 21.08 21.08 0 01-11.64 7.71z" fill="#8D6C9F"/></g></svg>